<svg width="22" height="22" viewBox="0 0 22 22" fill="none" xmlns="http://www.w3.org/2000/svg">
<path d="M21.7995 10.998L19.3817 8.23347L19.7186 4.57711L16.1415 3.76458L14.2687 0.59375L10.8997 2.04044L7.53072 0.59375L5.65795 3.75467L2.08086 4.55729L2.41776 8.22356L0 10.998L2.41776 13.7626L2.08086 17.4289L5.65795 18.2414L7.53072 21.4023L10.8997 19.9457L14.2687 21.3924L16.1415 18.2315L19.7186 17.419L19.3817 13.7626L21.7995 10.998ZM8.30361 14.9715L5.94531 12.5934C5.85345 12.5017 5.78057 12.3928 5.73085 12.2729C5.68112 12.1531 5.65553 12.0246 5.65553 11.8948C5.65553 11.765 5.68112 11.6365 5.73085 11.5166C5.78057 11.3968 5.85345 11.2879 5.94531 11.1962L6.01467 11.1269C6.40111 10.7404 7.03528 10.7404 7.42172 11.1269L9.01705 12.7321L14.1201 7.61912C14.5065 7.23268 15.1407 7.23268 15.5272 7.61912L15.5965 7.68848C15.983 8.07493 15.983 8.69918 15.5965 9.08563L9.73048 14.9715C9.32422 15.3579 8.69997 15.3579 8.30361 14.9715Z" fill="#FA7031"/>
</svg>
